<?xml version="1.0" encoding="utf-8"?><svg xmlns="http://www.w3.org/2000/svg" xmlns:xlink="http://www.w3.org/1999/xlink"><symbol viewBox="0 0 51 51" id="close" xmlns="http://www.w3.org/2000/svg"><path class="acls-1" d="M28.994 27.7l8.17 8a1.038 1.038 0 0 1-1.452 1.483l-8.171-8a1.038 1.038 0 0 1 1.453-1.483zm-7.342-4.58l-7.824-7.82a1.038 1.038 0 0 1 1.472-1.472l7.825 7.824a1.038 1.038 0 1 1-1.473 1.468zm15.52-9.292a1.038 1.038 0 0 1 0 1.468L15.3 37.172a1.038 1.038 0 1 1-1.472-1.472L35.7 13.828a1.038 1.038 0 0 1 1.472 0zM49.291 34.7a1.038 1.038 0 1 1-1.936-.748 23.449 23.449 0 1 0-5.623 8.441 1.038 1.038 0 0 1 1.438 1.5 25.423 25.423 0 1 1 6.121-9.193z"/></symbol></svg>