<?xml version="1.0" encoding="utf-8"?>
<svg xmlns="http://www.w3.org/2000/svg" xmlns:xlink="http://www.w3.org/1999/xlink">
    <symbol viewBox="0 0 13 13" id="aval" xmlns="http://www.w3.org/2000/svg">
        <path data-name="Shape 1 copy 2" class="acls-1"
              d="M3.835 5.264l-.91.91L5.85 9.1l6.5-6.5-.91-.91-5.59 5.589zM11.7 6.5a5.2 5.2 0 1 1-5.2-5.2 5.066 5.066 0 0 1 1.43.2L8.97.46A7.911 7.911 0 0 0 6.5 0 6.5 6.5 0 1 0 13 6.5h-1.3z"/>
    </symbol>
    <symbol viewBox="0 0 28 22.97" id="buy" xmlns="http://www.w3.org/2000/svg">
        <path class="bcls-1"
              d="M25.115 5.84h-3.994L16.941.3a.774.774 0 0 0-1.062-.16.712.712 0 0 0-.166 1.02l3.527 4.68H8.76l3.527-4.68a.712.712 0 0 0-.166-1.02.774.774 0 0 0-1.062.16l-4.18 5.54H2.885A2.841 2.841 0 0 0 0 8.63v.75a2.828 2.828 0 0 0 2.633 2.78l1.915 10.21a.751.751 0 0 0 .748.6H22.7a.749.749 0 0 0 .747-.6l1.916-10.21a2.828 2.828 0 0 0 2.633-2.78v-.75a2.841 2.841 0 0 0-2.881-2.79zM22.069 21.5H5.931L4.18 12.17h19.64zM26.48 9.38a1.343 1.343 0 0 1-1.365 1.32H2.885A1.343 1.343 0 0 1 1.52 9.38v-.75a1.343 1.343 0 0 1 1.365-1.32h22.23a1.343 1.343 0 0 1 1.365 1.32v.75zM9.136 19.74a.749.749 0 0 0 .76-.74v-4.33a.761.761 0 0 0-1.52 0V19a.749.749 0 0 0 .76.74zm3.243 0a.75.75 0 0 0 .76-.74v-4.33a.761.761 0 0 0-1.521 0V19a.75.75 0 0 0 .761.74zm3.242 0a.749.749 0 0 0 .76-.74v-4.33a.761.761 0 0 0-1.52 0V19a.749.749 0 0 0 .76.74zm3.243 0a.749.749 0 0 0 .76-.74v-4.33a.761.761 0 0 0-1.52 0V19a.749.749 0 0 0 .76.74z"/>
    </symbol>
    <symbol viewBox="0 0 12 12" id="not-a" xmlns="http://www.w3.org/2000/svg">
        <path class="ccls-1"
              d="M6 12a6 6 0 1 1 6-6 6 6 0 0 1-6 6zM6 1.12A4.875 4.875 0 1 0 10.875 6 4.88 4.88 0 0 0 6 1.12zm2.062 7.5a.562.562 0 0 1-.4-.16L6 6.8 4.335 8.46a.566.566 0 0 1-.96-.4.59.59 0 0 1 .165-.4L5.2 6 3.536 4.33a.548.548 0 0 1-.165-.39.559.559 0 0 1 .96-.4L6 5.2l1.665-1.66a.559.559 0 0 1 .96.4.548.548 0 0 1-.165.39L6.8 6l1.665 1.66a.59.59 0 0 1 .165.4.561.561 0 0 1-.568.56z"/>
    </symbol>
</svg>