<svg xmlns="http://www.w3.org/2000/svg" class="svg-icons">
    <symbol id="icon-close" viewBox="0 0 51 51">
        <path class="icon-close-1"
              d="M28.994 27.7l8.17 8a1.038 1.038 0 0 1-1.452 1.483l-8.171-8a1.038 1.038 0 0 1 1.453-1.483zm-7.342-4.58l-7.824-7.82a1.038 1.038 0 0 1 1.472-1.472l7.825 7.824a1.038 1.038 0 1 1-1.473 1.468zm15.52-9.292a1.038 1.038 0 0 1 0 1.468L15.3 37.172a1.038 1.038 0 1 1-1.472-1.472L35.7 13.828a1.038 1.038 0 0 1 1.472 0zM49.291 34.7a1.038 1.038 0 1 1-1.936-.748 23.449 23.449 0 1 0-5.623 8.441 1.038 1.038 0 0 1 1.438 1.5 25.423 25.423 0 1 1 6.121-9.193z"/>
    </symbol>
    <symbol id="icon-face" viewBox="0 0 42 41">
        <circle id="Ellipse_3_copy_4" data-name="Ellipse 3 copy 4" class="icon-face-1" cx="20.922" cy="20.5"
                r="20.234"/>
        <text id="f" class="icon-face-2" transform="matrix(.809 0 0 .819 15.03 31.462)">f</text>
    </symbol>
</svg>