<svg xmlns="http://www.w3.org/2000/svg" width="28" height="22.97" viewBox="0 0 28 22.97">
  <metadata><?xpacket begin="﻿" id="W5M0MpCehiHzreSzNTczkc9d"?>
<x:xmpmeta xmlns:x="adobe:ns:meta/" x:xmptk="Adobe XMP Core 5.6-c138 79.159824, 2016/09/14-01:09:01        ">
   <rdf:RDF xmlns:rdf="http://www.w3.org/1999/02/22-rdf-syntax-ns#">
      <rdf:Description rdf:about=""/>
   </rdf:RDF>
</x:xmpmeta>
                                                                                                    
                                                                                                    
                                                                                                    
                                                                                                    
                                                                                                    
                                                                                                    
                                                                                                    
                                                                                                    
                                                                                                    
                                                                                                    
                                                                                                    
                                                                                                    
                                                                                                    
                                                                                                    
                                                                                                    
                                                                                                    
                                                                                                    
                                                                                                    
                                                                                                    
                                                                                                    
                           
<?xpacket end="w"?></metadata>
<defs>
    <style>
      .cls-1 {
        fill: #906d48;
        fill-rule: evenodd;
      }
    </style>
  </defs>
  <path class="cls-1" d="M793.115,2238.87h-3.994l-4.18-5.54a0.774,0.774,0,0,0-1.062-.16,0.712,0.712,0,0,0-.166,1.02l3.527,4.68H776.76l3.527-4.68a0.712,0.712,0,0,0-.166-1.02,0.774,0.774,0,0,0-1.062.16l-4.18,5.54h-3.994a2.841,2.841,0,0,0-2.885,2.79v0.75a2.828,2.828,0,0,0,2.633,2.78l1.915,10.21a0.751,0.751,0,0,0,.748.6H790.7a0.749,0.749,0,0,0,.747-0.6l1.916-10.21a2.828,2.828,0,0,0,2.633-2.78v-0.75A2.841,2.841,0,0,0,793.115,2238.87Zm-3.046,15.66H773.931l-1.751-9.33h19.64Zm4.411-12.12a1.343,1.343,0,0,1-1.365,1.32h-22.23a1.343,1.343,0,0,1-1.365-1.32v-0.75a1.343,1.343,0,0,1,1.365-1.32h22.23a1.343,1.343,0,0,1,1.365,1.32v0.75Zm-17.344,10.36a0.749,0.749,0,0,0,.76-0.74v-4.33a0.761,0.761,0,0,0-1.52,0v4.33A0.749,0.749,0,0,0,777.136,2252.77Zm3.243,0a0.75,0.75,0,0,0,.76-0.74v-4.33a0.761,0.761,0,0,0-1.521,0v4.33A0.75,0.75,0,0,0,780.379,2252.77Zm3.242,0a0.749,0.749,0,0,0,.76-0.74v-4.33a0.761,0.761,0,0,0-1.52,0v4.33A0.749,0.749,0,0,0,783.621,2252.77Zm3.243,0a0.749,0.749,0,0,0,.76-0.74v-4.33a0.761,0.761,0,0,0-1.52,0v4.33A0.749,0.749,0,0,0,786.864,2252.77Z" transform="translate(-768 -2233.03)"/>
</svg>
