<svg xmlns="http://www.w3.org/2000/svg" width="51" height="51" viewBox="0 0 51 51">
    <defs>
        <style>
            .cls-1 {
            fill: #272727;
            fill-rule: evenodd;
            }
        </style>
    </defs>
    <path class="cls-1"
          d="M28.994,27.7l8.17,8a1.038,1.038,0,0,1-1.452,1.483l-8.171-8A1.038,1.038,0,0,1,28.994,27.7ZM21.652,23.12L13.828,15.3A1.038,1.038,0,0,1,15.3,13.828l7.825,7.824A1.038,1.038,0,1,1,21.652,23.12Zm15.52-9.292a1.038,1.038,0,0,1,0,1.468L15.3,37.172A1.038,1.038,0,1,1,13.828,35.7L35.7,13.828A1.038,1.038,0,0,1,37.172,13.828ZM49.291,34.7a1.038,1.038,0,1,1-1.936-.748,23.449,23.449,0,1,0-5.623,8.441,1.038,1.038,0,0,1,1.438,1.5A25.423,25.423,0,1,1,49.291,34.7Z"/>
</svg>
