<svg xmlns="http://www.w3.org/2000/svg" width="12" height="12" viewBox="0 0 12 12">
  <metadata><?xpacket begin="﻿" id="W5M0MpCehiHzreSzNTczkc9d"?>
<x:xmpmeta xmlns:x="adobe:ns:meta/" x:xmptk="Adobe XMP Core 5.6-c138 79.159824, 2016/09/14-01:09:01        ">
   <rdf:RDF xmlns:rdf="http://www.w3.org/1999/02/22-rdf-syntax-ns#">
      <rdf:Description rdf:about=""/>
   </rdf:RDF>
</x:xmpmeta>
                                                                                                    
                                                                                                    
                                                                                                    
                                                                                                    
                                                                                                    
                                                                                                    
                                                                                                    
                                                                                                    
                                                                                                    
                                                                                                    
                                                                                                    
                                                                                                    
                                                                                                    
                                                                                                    
                                                                                                    
                                                                                                    
                                                                                                    
                                                                                                    
                                                                                                    
                                                                                                    
                           
<?xpacket end="w"?></metadata>
<defs>
    <style>
      .cls-1 {
        fill: #fff;
        fill-rule: evenodd;
      }
    </style>
  </defs>
  <path class="cls-1" d="M986,2707a6,6,0,1,1,6-6A6,6,0,0,1,986,2707Zm0-10.88a4.875,4.875,0,1,0,4.875,4.88A4.88,4.88,0,0,0,986,2696.12Zm2.062,7.5a0.562,0.562,0,0,1-.4-0.16h0L986,2701.8l-1.665,1.66h0a0.566,0.566,0,0,1-.96-0.4,0.59,0.59,0,0,1,.165-0.4h0L985.2,2701l-1.664-1.67h0a0.548,0.548,0,0,1-.165-0.39,0.559,0.559,0,0,1,.96-0.4h0L986,2700.2l1.665-1.66h0a0.559,0.559,0,0,1,.96.4,0.548,0.548,0,0,1-.165.39h0L986.8,2701l1.665,1.66h0a0.59,0.59,0,0,1,.165.4A0.561,0.561,0,0,1,988.062,2703.62Z" transform="translate(-980 -2695)"/>
</svg>
